<svg width="208" height="213" viewBox="0 0 208 213" fill="none" xmlns="http://www.w3.org/2000/svg">
<g id="Group 102">
<path id="Ellipse 12" d="M2.74918 15.1191C2.40285 8.09425 8.13081 2.5 14.9999 2.5H137.1C144.086 2.5 149.325 8.14441 150.385 14.5465C151.112 18.9292 152.337 23.2251 154.045 27.3487C156.98 34.4341 161.282 40.8721 166.705 46.295C172.128 51.718 178.566 56.0197 185.651 58.9546C186.387 59.2594 187.07 59.5455 187.711 59.814C190.172 60.8453 192.013 61.6169 193.871 62.1946C199.691 64.0045 205.5 68.837 205.5 75.9L205.5 198C205.5 204.865 199.906 210.609 192.872 210.239C170.328 209.053 151.027 203.833 129.358 194.857C104.426 184.53 81.7719 169.393 62.6895 150.31C43.607 131.228 28.47 108.574 18.1427 83.6415C9.10808 61.8301 3.90919 38.6488 2.74918 15.1191Z" fill="#046BBA" stroke="#0F2A6E" stroke-width="5"/>
<path id="Ellipse 14" d="M18.2944 83.7771L18.2889 83.7641L18.2834 83.7511C9.16511 61.8638 3.91825 38.7086 2.75024 15.1196C2.40238 8.09421 8.13115 2.5 15 2.5H20.5912H23.651L23.0416 5.49522L23.0415 5.49583L23.0413 5.49688L23.041 5.49842L23.0407 5.49991L23.0343 5.53294C23.0281 5.56546 23.018 5.61898 23.0047 5.69343C22.978 5.84232 22.9382 6.07494 22.8894 6.39079C22.7918 7.02247 22.6582 7.98709 22.5223 9.28061C22.2505 11.8675 21.9693 15.7706 21.9474 20.9575C21.9037 31.3301 22.8969 46.8436 27.081 67.2394C31.2265 87.4475 40.1836 106.505 48.1548 120.562C52.1334 127.578 55.8503 133.32 58.5689 137.303C59.9279 139.294 61.0364 140.844 61.8022 141.893C62.1851 142.417 62.4822 142.816 62.682 143.081C62.7819 143.214 62.8575 143.314 62.9073 143.379L62.9624 143.451L62.9752 143.467L62.9778 143.471L62.9779 143.471L62.9781 143.471C62.9781 143.471 62.9781 143.471 62.9712 143.477L59.1648 146.698C40.4674 126.484 28.8131 108.243 18.2944 83.7771Z" fill="#035EA3" stroke="#0F2A6E" stroke-width="5"/>
</g>
</svg>
