<svg width="208" height="213" viewBox="0 0 208 213" fill="none" xmlns="http://www.w3.org/2000/svg">
<g id="Group 100">
<path id="Ellipse 12" d="M205.345 197.881C205.691 204.906 199.963 210.5 193.094 210.5H70.9939C64.0082 210.5 58.7691 204.855 57.7083 198.453C56.9821 194.071 55.7565 189.775 54.0484 185.651C51.1135 178.566 46.8118 172.128 41.3889 166.705C35.966 161.282 29.528 156.98 22.4426 154.045C21.7066 153.74 21.0238 153.454 20.3831 153.186C17.9219 152.155 16.0805 151.383 14.2226 150.805C8.40242 148.995 2.59375 144.163 2.59375 137.1L2.59374 14.9999C2.59373 8.1348 8.18771 2.39066 15.2217 2.7608C37.7653 3.94717 57.0667 9.16719 78.7353 18.1426C103.668 28.47 126.322 43.607 145.404 62.6894C164.487 81.7719 179.624 104.426 189.951 129.358C198.986 151.17 204.185 174.351 205.345 197.881Z" fill="#046BBA" stroke="#0F2A6E" stroke-width="5"/>
<path id="Ellipse 14" d="M189.799 129.223L189.805 129.236L189.81 129.249C198.929 151.136 204.175 174.291 205.344 197.88C205.691 204.906 199.963 210.5 193.094 210.5H187.503H184.443L185.052 207.505L185.052 207.504L185.052 207.503L185.053 207.501L185.053 207.5L185.059 207.467C185.066 207.434 185.076 207.381 185.089 207.306C185.116 207.158 185.156 206.925 185.204 206.609C185.302 205.977 185.436 205.013 185.571 203.719C185.843 201.132 186.124 197.229 186.146 192.042C186.19 181.67 185.197 166.156 181.013 145.76C176.867 125.552 167.91 106.495 159.939 92.4382C155.96 85.4221 152.243 79.68 149.525 75.6968C148.166 73.7057 147.057 72.1556 146.292 71.1071C145.909 70.5829 145.612 70.1842 145.412 69.9186C145.312 69.7859 145.236 69.6864 145.186 69.6211L145.131 69.549L145.119 69.5324L145.116 69.5291L145.116 69.529L145.116 69.5286C145.116 69.5286 145.116 69.5286 145.123 69.5233L148.929 66.3023C167.626 86.5157 179.281 104.757 189.799 129.223Z" fill="#035EA3" stroke="#0F2A6E" stroke-width="5"/>
</g>
</svg>
