<svg width="215" height="208" viewBox="0 0 215 208" fill="none" xmlns="http://www.w3.org/2000/svg">
<g id="Group 104">
<path id="Ellipse 12" d="M200 2.80124C207.028 2.52966 212.561 8.31682 212.488 15.1855L211.189 137.279C211.115 144.264 205.415 149.443 199.002 150.435C194.612 151.115 190.303 152.295 186.162 153.959C179.045 156.818 172.562 161.051 167.082 166.416C161.601 171.781 157.231 178.173 154.221 185.227C153.909 185.959 153.615 186.639 153.34 187.277C152.283 189.727 151.491 191.56 150.894 193.412C149.022 199.212 144.128 204.969 137.066 204.894L14.9726 203.595C8.10792 203.522 2.42362 197.867 2.86857 190.838C4.29471 168.308 9.71976 149.063 18.9252 127.491C29.5172 102.67 44.8944 80.1783 64.1787 61.2999C83.4631 42.4216 106.277 27.5264 131.318 17.4649C153.224 8.66285 176.459 3.71087 200 2.80124Z" fill="#046BBA" stroke="#0F2A6E" stroke-width="5"/>
<path id="Ellipse 14" d="M131.182 17.6155L131.195 17.6101L131.208 17.6048C153.191 8.71984 176.401 3.71961 200.001 2.80262C207.029 2.52952 212.562 8.31748 212.489 15.1859L212.43 20.7768L212.397 23.8365L209.409 23.1952L209.408 23.1951L209.407 23.1949L209.405 23.1946L209.404 23.1943L209.371 23.1875C209.339 23.1809 209.285 23.1703 209.211 23.1562C209.062 23.128 208.83 23.0857 208.515 23.0335C207.884 22.9291 206.921 22.7853 205.629 22.6357C203.045 22.3364 199.145 22.0137 193.959 21.9366C183.587 21.7825 168.064 22.6107 147.625 26.5775C127.374 30.5078 108.222 39.2616 94.0815 47.0829C87.0235 50.9866 81.2422 54.6422 77.2303 57.3183C75.2249 58.656 73.663 59.748 72.6065 60.5026C72.0782 60.8799 71.6764 61.1727 71.4087 61.3697C71.2748 61.4682 71.1745 61.5427 71.1087 61.5918L71.0361 61.6462L71.0194 61.6587L71.016 61.6613L71.0159 61.6614L71.0155 61.6616C71.0155 61.6616 71.0156 61.6616 71.0103 61.6546L67.8299 57.8142C88.2411 39.3329 106.605 27.8733 131.182 17.6155Z" fill="#035EA3" stroke="#0F2A6E" stroke-width="5"/>
</g>
</svg>
