<svg width="213" height="208" viewBox="0 0 213 208" fill="none" xmlns="http://www.w3.org/2000/svg">
<g id="Group 105">
<path id="Ellipse 12" d="M15.1191 205.251C8.09425 205.597 2.5 199.869 2.5 193L2.5 70.9C2.5 63.9143 8.14441 58.6752 14.5465 57.6144C18.9292 56.8882 23.2251 55.6626 27.3487 53.9545C34.4341 51.0197 40.8721 46.718 46.295 41.295C51.718 35.8721 56.0197 29.4341 58.9545 22.3487C59.2594 21.6127 59.5455 20.93 59.814 20.2892C60.8453 17.8281 61.6169 15.9867 62.1946 14.1287C64.0044 8.30854 68.837 2.49988 75.9 2.49988L198 2.49986C204.865 2.49986 210.609 8.09384 210.239 15.1278C209.053 37.6714 203.833 56.9728 194.857 78.6414C184.53 103.574 169.393 126.228 150.31 145.31C131.228 164.393 108.574 179.53 83.6415 189.857C61.8301 198.892 38.6488 204.091 15.1191 205.251Z" fill="#046BBA" stroke="#0F2A6E" stroke-width="5"/>
<path id="Ellipse 14" d="M83.7771 189.705L83.7641 189.711L83.751 189.716C61.8638 198.835 38.7086 204.082 15.1196 205.25C8.09421 205.597 2.5 199.869 2.5 193L2.5 187.409L2.5 184.349L5.49522 184.958L5.49583 184.958L5.49688 184.959L5.49842 184.959L5.49991 184.959L5.53294 184.966C5.56546 184.972 5.61898 184.982 5.69343 184.995C5.84232 185.022 6.07494 185.062 6.39079 185.11C7.02247 185.208 7.98709 185.342 9.28061 185.478C11.8675 185.749 15.7706 186.031 20.9575 186.052C31.3301 186.096 46.8436 185.103 67.2394 180.919C87.4475 176.773 106.505 167.816 120.562 159.845C127.578 155.866 133.32 152.15 137.303 149.431C139.294 148.072 140.844 146.963 141.893 146.198C142.417 145.815 142.816 145.518 143.081 145.318C143.214 145.218 143.314 145.142 143.379 145.093L143.451 145.037L143.467 145.025L143.471 145.022L143.471 145.022L143.471 145.022C143.471 145.022 143.471 145.022 143.477 145.029L146.698 148.835C126.484 167.533 108.243 179.187 83.7771 189.705Z" fill="#035EA3" stroke="#0F2A6E" stroke-width="5"/>
</g>
</svg>
